<?xml version="1.0" encoding="utf-8"?>
<!-- Generator: Adobe Illustrator 25.3.0, SVG Export Plug-In . SVG Version: 6.00 Build 0)  -->
<svg version="1.1" xmlns="http://www.w3.org/2000/svg" xmlns:xlink="http://www.w3.org/1999/xlink" x="0px" y="0px"
	 viewBox="0 0 1063.68 668.24" style="enable-background:new 0 0 1063.68 668.24;" xml:space="preserve">
<style type="text/css">
	.st0{display:none;}
	.st1{display:inline;fill:#053A4C;}
	.st2{fill:#69C6E0;}
	.st3{fill:#053A4C;}
	.st4{fill:#38B2E7;}
	.st5{fill:#1E1E1C;}
</style>
<g id="Hintergrund" class="st0">
</g>
<g id="Ebene_1">
	<g>
		<g>
			<g>
				<path class="st3" d="M986.98,166.17c34.74,26.66,82.42-3.71,76.14-48.5c-3.91-27.86-28.39-47.88-54.58-44.62
					C961.64,80.09,954.09,140.94,986.98,166.17z"/>
				<path class="st4" d="M782.49,160.47c-11.24,12.13-16.01,25.5-15.01,42.06c1.48,24.59-8.89,41.3-17.85,50.99
					c-13.24,14.32-30.93,22.26-49.81,22.37c-24.33,0.14-37.25,14.19-41.5,18.8c-1.41,1.53-3.07,3.76-4.23,5.48
					c-15.61,23.33-11.05,53.46,10.6,70.08c19.98,15.34,48.7,13.31,68.29-4.82c6.6-6.11,17.6-19.61,17.12-41.42
					c-0.42-18.96,5.59-34.94,18.89-50.29c5.33-5.8,21.56-23.45,50.14-24.87c23.74-1.18,40.56-17.77,46.69-33.69
					c14.73-38.25-14.01-71.46-47-70.81c-0.92,0.02-2.14,0.08-3.06,0.15c-12.48,1.31-23.05,6.05-31.4,14.09
					C783.8,159.15,783.03,159.89,782.49,160.47z"/>
				<path class="st3" d="M836.19,245.91c18.26-5.12,35.23-3.28,53.41,5.78c6.94,3.72,28.08,15.04,36.57,42.37
					c7.05,22.71,27.3,34.86,44.25,36.84c40.71,4.75,65.72-31.35,56.89-63.14c-0.25-0.88-0.61-2.05-0.91-2.92
					c-4.37-11.76-11.59-20.82-21.46-26.91c-0.68-0.42-1.58-0.98-2.28-1.36c-14.55-7.86-28.68-9.16-44.48-4.07
					c-23.45,7.55-42.21,1.66-53.83-4.6c-17.16-9.26-29.26-24.42-34.06-42.67c-6.19-23.53-23.01-32.55-28.54-35.51
					c-1.83-0.98-4.4-2.04-6.36-2.73c-26.48-9.32-54.53,2.59-65.24,27.71c-9.88,23.17-0.77,50.48,21.66,64.94
					C799.36,244.5,815.18,251.8,836.19,245.91z"/>
				<path class="st4" d="M614.34,257.24c-3.39-16.63-19.16-27.89-35.17-25.11c-28.77,5.74-31,42.39-9.62,56.42
					C592.18,303.39,619.8,284.08,614.34,257.24z"/>
			</g>
			<g>
				<path class="st5" d="M130.08,298.68c0,9.62-2.01,18.01-6.03,25.18c-4.02,7.17-9.53,13.16-16.52,17.96
					c-7,4.81-15.26,8.39-24.78,10.75c-9.53,2.36-19.71,3.54-30.55,3.54h-7.08v62.15H8.39V243.6h47.73c10.49,0,20.24,1.09,29.24,3.28
					c9,2.19,16.83,5.55,23.47,10.09c6.64,4.55,11.84,10.27,15.61,17.18C128.2,281.06,130.08,289.23,130.08,298.68z M93.36,298.68
					c0-9.09-3.37-15.77-10.1-20.06c-6.73-4.28-15.87-6.43-27.41-6.43H45.11v55.34h8.92c12.24,0,21.85-2.36,28.85-7.08
					C89.86,315.72,93.36,308.47,93.36,298.68z"/>
				<path class="st5" d="M284.28,296.84c0,12.41-3.5,22.86-10.49,31.34c-6.99,8.48-17.05,14.99-30.16,19.54l59.01,70.55h-45.63
					l-50.62-63.73h-11.8v63.73h-36.72V243.6h52.19c10.84,0,20.8,1.09,29.9,3.28c9.09,2.19,16.91,5.51,23.47,9.96
					c6.56,4.46,11.67,10.01,15.34,16.66C282.45,280.15,284.28,287.92,284.28,296.84z M247.57,297.63c0-8.91-3.5-15.38-10.49-19.4
					c-7-4.02-16.09-6.04-27.28-6.04h-15.21v54.55h11.02c12.59,0,22.73-2.45,30.42-7.34C243.72,314.5,247.57,307.24,247.57,297.63z"
					/>
				<path class="st5" d="M491.46,330.94c0,12.41-1.97,24.08-5.9,35.01c-3.93,10.93-9.62,20.5-17.05,28.71
					c-7.43,8.22-16.61,14.73-27.54,19.54c-10.93,4.81-23.39,7.21-37.37,7.21c-13.99,0-26.45-2.41-37.37-7.21
					c-10.93-4.81-20.15-11.32-27.67-19.54c-7.52-8.22-13.2-17.79-17.05-28.71c-3.85-10.93-5.77-22.6-5.77-35.01
					c0-12.24,1.92-23.87,5.77-34.88c3.84-11.02,9.53-20.63,17.05-28.85c7.52-8.22,16.74-14.72,27.67-19.53
					c10.92-4.81,23.38-7.22,37.37-7.22c13.99,0,26.44,2.41,37.37,7.22c10.92,4.81,20.1,11.32,27.54,19.53
					c7.43,8.22,13.11,17.83,17.05,28.85C489.5,307.07,491.46,318.7,491.46,330.94z M403.61,392.56c8.56,0,16.04-1.57,22.42-4.72
					c6.38-3.14,11.71-7.47,16-12.98c4.28-5.51,7.47-12.02,9.57-19.54c2.1-7.51,3.15-15.64,3.15-24.39s-1.05-16.87-3.15-24.39
					c-2.1-7.52-5.29-14.03-9.57-19.54c-4.29-5.51-9.62-9.83-16-12.98c-6.38-3.15-13.86-4.72-22.42-4.72
					c-8.57,0-16.04,1.57-22.42,4.72c-6.39,3.15-11.72,7.47-16,12.98c-4.29,5.51-7.47,12.02-9.57,19.54
					c-2.1,7.52-3.15,15.65-3.15,24.39s1.05,16.87,3.15,24.39c2.1,7.52,5.29,14.03,9.57,19.54c4.28,5.51,9.61,9.84,16,12.98
					C387.56,390.99,395.04,392.56,403.61,392.56z"/>
				<path class="st5" d="M92.84,487.28c4.37,0,8.83,0.22,13.37,0.65c4.54,0.44,8.96,1.04,13.24,1.82c4.28,0.78,8.39,1.74,12.33,2.86
					c3.93,1.12,7.47,2.47,10.62,4.02l-5.25,26.84c-5.6-2.1-11.8-3.8-18.62-5.11c-6.82-1.31-13.55-1.97-20.19-1.97
					c-19.93,0-35.19,5.18-45.76,15.54C42,542.29,36.72,557.57,36.72,577.76c0,20.19,5.29,35.47,15.87,45.83
					c10.58,10.36,25.83,15.54,45.76,15.54c6.64,0,13.38-0.65,20.19-1.97c6.82-1.31,13.02-3.01,18.62-5.11l5.25,26.84
					c-3.15,1.56-6.69,2.9-10.62,4.03c-3.93,1.13-8.04,2.08-12.33,2.86c-4.29,0.77-8.7,1.38-13.24,1.82
					c-4.55,0.43-9.01,0.65-13.37,0.65c-15.04,0-28.33-2.27-39.86-6.82c-11.54-4.54-21.24-10.84-29.11-18.88
					C16,634.5,10.05,624.97,6.03,613.96C2.01,602.94,0,590.88,0,577.76c0-13.12,2.01-25.18,6.03-36.19
					c4.02-11.02,9.97-20.54,17.83-28.59c7.87-8.04,17.57-14.33,29.11-18.88C64.51,489.56,77.8,487.28,92.84,487.28z"/>
				<path class="st5" d="M335.16,577.76c0,12.41-1.97,24.08-5.9,35.01c-3.93,10.93-9.62,20.5-17.05,28.71
					c-7.43,8.22-16.61,14.73-27.54,19.54c-10.93,4.81-23.39,7.21-37.37,7.21c-13.99,0-26.45-2.41-37.37-7.21
					c-10.93-4.81-20.15-11.32-27.67-19.54c-7.52-8.22-13.2-17.79-17.05-28.71c-3.85-10.93-5.77-22.6-5.77-35.01
					c0-12.24,1.92-23.87,5.77-34.88c3.84-11.02,9.53-20.63,17.05-28.85c7.52-8.22,16.74-14.72,27.67-19.53
					c10.92-4.81,23.38-7.22,37.37-7.22c13.99,0,26.44,2.41,37.37,7.22c10.92,4.81,20.1,11.32,27.54,19.53
					c7.43,8.22,13.11,17.83,17.05,28.85C333.19,553.9,335.16,565.53,335.16,577.76z M247.3,639.39c8.56,0,16.04-1.57,22.42-4.72
					c6.38-3.14,11.71-7.47,16-12.98c4.28-5.51,7.47-12.02,9.57-19.54c2.1-7.51,3.15-15.64,3.15-24.39s-1.05-16.87-3.15-24.39
					c-2.1-7.52-5.29-14.03-9.57-19.54c-4.29-5.51-9.62-9.83-16-12.98c-6.38-3.15-13.86-4.72-22.42-4.72
					c-8.57,0-16.04,1.57-22.42,4.72c-6.39,3.15-11.72,7.47-16,12.98c-4.29,5.51-7.47,12.02-9.57,19.54
					c-2.1,7.52-3.15,15.65-3.15,24.39s1.05,16.87,3.15,24.39c2.1,7.52,5.29,14.03,9.57,19.54c4.28,5.51,9.61,9.84,16,12.98
					C231.26,637.82,238.74,639.39,247.3,639.39z"/>
				<path class="st5" d="M480.19,665.09l-81.56-114.34v114.34h-35.14V490.43h35.14l81.56,114.35V490.43h35.14v174.66H480.19z"/>
				<path class="st5" d="M671.89,490.43v29.11h-48.25v145.55h-36.72V519.54h-48.25v-29.11H671.89z"/>
				<path class="st5" d="M695.23,490.43h104.9v29.11h-68.19v42.22h65.04v29.11h-65.04v45.11h68.97v29.11H695.23V490.43z"/>
				<path class="st5" d="M864.38,490.43v145.55h65.04v29.11H827.67V490.43H864.38z"/>
			</g>
		</g>
	</g>
</g>
</svg>
